<svg width="734" height="143" viewBox="0 0 734 143" fill="none" xmlns="http://www.w3.org/2000/svg">
<path d="M252.159 64.763H272.733C270.79 45.7894 258.903 32.5307 236.614 32.5307C210.783 32.5307 196.953 50.5899 196.953 75.1642C196.953 99.8528 210.783 117.912 236.614 117.912C259.017 117.912 270.904 104.653 272.733 85.4512H252.159C250.788 94.5951 246.673 101.11 235.7 101.11C222.098 101.11 217.526 90.5946 217.526 75.1642C217.526 59.8482 222.098 49.3327 235.7 49.3327C246.558 49.3327 250.673 55.8477 252.159 64.763ZM315.511 55.7334C306.139 55.7334 300.424 60.6483 297.338 66.0203H297.109V34.3595H278.821V116.083H297.109V82.2508C297.109 74.1356 301.91 70.5923 307.739 70.5923C314.368 70.5923 317.226 73.5641 317.226 82.3651V116.083H335.513V76.5358C335.513 63.1628 327.855 55.7334 315.511 55.7334ZM372.239 104.196C365.724 104.196 359.666 99.8528 359.666 91.6233H401.728C401.728 70.3637 391.556 55.7334 371.553 55.7334C352.923 55.7334 341.378 68.9921 341.378 86.8228C341.378 105.111 353.151 117.912 372.582 117.912C388.47 117.912 397.614 110.14 400.814 98.367H382.64C381.497 101.224 378.526 104.196 372.239 104.196ZM371.553 68.3063C378.526 68.3063 383.441 72.4211 383.441 80.5363H359.666C359.666 72.4211 364.581 68.3063 371.553 68.3063ZM440.796 48.1897V34.4738C437.482 33.788 434.624 33.3308 429.481 33.3308C416.108 33.3308 412.336 40.4173 412.336 53.5617V57.5622H403.649V71.2781H412.336V116.083H430.624V71.2781H440.796V57.5622H430.624V55.0476C430.624 48.1897 433.024 48.1897 440.796 48.1897ZM484.417 55.7334C474.015 55.7334 468.3 60.6483 465.214 66.0203H464.986V57.5622H446.698V116.083H464.986V82.2508C464.986 74.1356 468.986 70.5923 475.958 70.5923C482.016 70.5923 485.102 73.5641 485.102 82.3651V116.083H503.39V76.5358C503.39 63.1628 495.732 55.7334 484.417 55.7334ZM540.573 117.912C521.028 117.912 509.255 104.996 509.255 86.8228C509.255 68.6492 521.028 55.7334 540.573 55.7334C560.004 55.7334 571.777 68.6492 571.777 86.8228C571.777 104.996 560.004 117.912 540.573 117.912ZM540.573 104.196C548.574 104.196 553.489 98.1384 553.489 86.8228C553.489 75.5071 548.574 69.4493 540.573 69.4493C532.458 69.4493 527.543 75.5071 527.543 86.8228C527.543 98.1384 532.458 104.196 540.573 104.196ZM610.334 71.2781V57.5622H600.161V41.2174H581.874V57.5622H573.758V71.2781H581.874V96.8811C581.874 110.025 585.645 117.112 599.018 117.112C604.162 117.112 607.019 116.541 610.334 115.855V102.139C602.562 102.139 600.161 102.139 600.161 95.5095V71.2781H610.334ZM644.704 104.196C638.189 104.196 632.131 99.8528 632.131 91.6233H674.193C674.193 70.3637 664.021 55.7334 644.018 55.7334C625.388 55.7334 613.843 68.9921 613.843 86.8228C613.843 105.111 625.616 117.912 645.047 117.912C660.935 117.912 670.078 110.14 673.279 98.367H655.105C653.962 101.224 650.99 104.196 644.704 104.196ZM644.018 68.3063C650.99 68.3063 655.905 72.4211 655.905 80.5363H632.131C632.131 72.4211 637.046 68.3063 644.018 68.3063ZM709.005 79.1647C699.976 77.2216 696.318 77.1073 696.318 72.9926C696.318 70.1351 698.947 68.3063 704.09 68.3063C710.034 68.3063 712.549 70.8209 713.12 75.5071H730.265C729.693 65.2202 722.378 55.7334 703.633 55.7334C687.174 55.7334 678.03 63.8486 678.03 74.4785C678.03 86.7085 689.003 90.366 698.947 92.5377C708.205 94.5951 713.692 95.2809 713.692 100.31C713.692 103.625 710.834 105.339 705.691 105.339C698.49 105.339 694.604 102.482 694.032 96.6525H676.887C677.459 108.54 685.46 117.912 706.376 117.912C722.607 117.912 731.979 111.168 731.979 98.8242C731.979 85.5655 720.55 81.6793 709.005 79.1647Z" fill="#121212"/>
<g clip-path="url(#clip0_9_211)">
<path d="M138.15 96.0061L139.876 124.67C139.893 128.601 136.711 131.792 132.779 131.792H37.2382C33.3232 131.792 30.1492 128.627 30.1408 124.712L31.7994 96.225C18.0172 91.4766 8.10784 78.4101 8.05732 63.0282C7.99839 43.6473 23.8433 27.7183 43.2158 27.6846C46.7434 27.6846 50.1447 28.1897 53.3609 29.1495C59.2795 18.011 70.999 10.4253 84.4865 10.4253C97.974 10.4253 109.761 18.0531 115.663 29.2421C119.174 28.1561 122.928 27.6088 126.81 27.693C146.073 28.0971 161.295 43.6894 161.269 62.9525C161.253 78.1659 151.655 91.0978 138.125 96.0061H138.15Z" stroke="#121212" stroke-width="16.1311" stroke-linecap="round" stroke-linejoin="round"/>
<rect x="36.5" y="115.583" width="97.3333" height="12.1667" fill="#121212"/>
</g>
<defs>
<clipPath id="clip0_9_211">
<rect width="170.333" height="139.917" fill="white"/>
</clipPath>
</defs>
</svg>
