<svg width="171" height="140" viewBox="0 0 171 140" fill="none" xmlns="http://www.w3.org/2000/svg">
<g clip-path="url(#clip0_9_211)">
<path d="M138.15 96.0061L139.876 124.67C139.893 128.601 136.711 131.792 132.779 131.792H37.2382C33.3232 131.792 30.1492 128.627 30.1408 124.712L31.7994 96.225C18.0172 91.4766 8.10784 78.4101 8.05732 63.0282C7.99839 43.6473 23.8433 27.7183 43.2158 27.6846C46.7434 27.6846 50.1447 28.1897 53.3609 29.1495C59.2795 18.011 70.999 10.4253 84.4865 10.4253C97.974 10.4253 109.761 18.0531 115.663 29.2421C119.174 28.1561 122.928 27.6088 126.81 27.693C146.073 28.0971 161.295 43.6894 161.269 62.9525C161.253 78.1659 151.655 91.0978 138.125 96.0061H138.15Z" stroke="#121212" stroke-width="16.1311" stroke-linecap="round" stroke-linejoin="round"/>
<rect x="36.5" y="115.583" width="97.3333" height="12.1667" fill="#121212"/>
</g>
<defs>
<clipPath id="clip0_9_211">
<rect width="170.333" height="139.917" fill="white"/>
</clipPath>
</defs>
</svg>
